<?xml version="1.0" encoding="UTF-8" standalone="no"?>
<!-- Created with Inkscape (http://www.inkscape.org/) -->

<svg
   width="23.191248mm"
   height="22.848951mm"
   viewBox="0 0 23.191248 22.848952"
   version="1.1"
   id="svg5"
   sodipodi:docname="home.svg"
   inkscape:version="1.1 (c68e22c387, 2021-05-23)"
   xmlns:inkscape="http://www.inkscape.org/namespaces/inkscape"
   xmlns:sodipodi="http://sodipodi.sourceforge.net/DTD/sodipodi-0.dtd"
   xmlns="http://www.w3.org/2000/svg"
   xmlns:svg="http://www.w3.org/2000/svg">
  <sodipodi:namedview
     id="namedview7"
     pagecolor="#505050"
     bordercolor="#eeeeee"
     borderopacity="1"
     inkscape:pageshadow="0"
     inkscape:pageopacity="0"
     inkscape:pagecheckerboard="0"
     inkscape:document-units="mm"
     showgrid="false"
     inkscape:zoom="2.0460067"
     inkscape:cx="-47.898181"
     inkscape:cy="-7.5757327"
     inkscape:window-width="1920"
     inkscape:window-height="1001"
     inkscape:window-x="-9"
     inkscape:window-y="-9"
     inkscape:window-maximized="1"
     inkscape:current-layer="layer1" />
  <defs
     id="defs2" />
  <g
     inkscape:label="Calque 1"
     inkscape:groupmode="layer"
     id="layer1"
     transform="translate(-111.86562,-73.342926)">
    <path
       style="fill:#ffffff;stroke-width:0.0846667"
       d="m 115.73754,96.073031 c -0.12689,-0.07001 -0.26976,-0.200264 -0.3175,-0.289462 -0.0953,-0.17797 -0.12742,-11.398946 -0.0334,-11.643994 0.0475,-0.123865 7.0428,-6.060216 7.56425,-6.4192 0.26861,-0.18492 0.75271,-0.184633 1.02066,5.93e-4 0.53037,0.366659 7.51663,6.294493 7.56406,6.418097 0.0295,0.07683 0.0536,2.702766 0.0536,5.835407 v 5.695712 l -0.20445,0.220606 c -0.11245,0.121333 -0.29389,0.243052 -0.40319,0.270487 -0.10931,0.02743 -1.19761,0.0385 -2.41844,0.02459 l -2.21969,-0.02528 -0.23462,-0.234638 -0.23461,-0.234639 -0.0423,-3.265303 -0.0423,-3.265305 -0.23755,-0.204223 c -0.23543,-0.202399 -0.25412,-0.204225 -2.09078,-0.204225 -1.83666,0 -1.85535,0.0018 -2.09078,0.204225 l -0.23755,0.204223 -0.0423,3.265305 -0.0423,3.265303 -0.23462,0.234639 -0.23463,0.234638 -2.30537,0.01986 c -1.91959,0.01654 -2.34398,-0.0014 -2.53608,-0.107422 z m -3.35086,-12.369666 c -0.46557,-0.235118 -0.65999,-0.835288 -0.41399,-1.278004 0.15567,-0.280157 10.11338,-8.625393 10.55722,-8.847662 0.49794,-0.249365 1.32705,-0.258306 1.83579,-0.0198 0.41541,0.194755 10.32876,8.493386 10.54626,8.82845 0.30389,0.468157 0.11303,1.078298 -0.4158,1.329244 -0.28377,0.134656 -0.35234,0.138152 -0.63921,0.03258 -0.19756,-0.0727 -2.10439,-1.618448 -4.95032,-4.012921 -2.54594,-2.142067 -4.74388,-3.980392 -4.8843,-4.085167 -0.39913,-0.297798 -0.80273,-0.255575 -1.29432,0.135407 -0.22537,0.179247 -2.39097,1.992847 -4.81244,4.03022 -2.42146,2.037373 -4.48085,3.757061 -4.57642,3.821529 -0.28707,0.19365 -0.65004,0.218846 -0.95247,0.06612 z m 17.69973,-7.078839 -1.29117,-1.092053 v -0.847287 c 0,-0.823585 0.007,-0.854209 0.24749,-1.094773 0.23738,-0.237382 0.27903,-0.247487 1.0202,-0.247487 0.85612,0 1.23863,0.129632 1.31615,0.44604 0.0255,0.103928 0.0355,1.030157 0.0224,2.058286 l -0.0239,1.869327 z"
       id="path1480" />
  </g>
</svg>
