<?xml version="1.0" encoding="UTF-8" standalone="no"?>
<svg
   xmlns:dc="http://purl.org/dc/elements/1.1/"
   xmlns:cc="http://creativecommons.org/ns#"
   xmlns:rdf="http://www.w3.org/1999/02/22-rdf-syntax-ns#"
   xmlns:svg="http://www.w3.org/2000/svg"
   xmlns="http://www.w3.org/2000/svg"
   xmlns:sodipodi="http://sodipodi.sourceforge.net/DTD/sodipodi-0.dtd"
   xmlns:inkscape="http://www.inkscape.org/namespaces/inkscape"
   viewBox="0 0 200 200"
   version="1.1"
   id="svg16"
   sodipodi:docname="linkedin.svg"
   width="200"
   height="200"
   inkscape:version="1.0 (4035a4fb49, 2020-05-01)">
  <metadata
     id="metadata22">
    <rdf:RDF>
      <cc:Work
         rdf:about="">
        <dc:format>image/svg+xml</dc:format>
        <dc:type
           rdf:resource="http://purl.org/dc/dcmitype/StillImage" />
      </cc:Work>
    </rdf:RDF>
  </metadata>
  <defs
     id="defs20" />
  <sodipodi:namedview
     inkscape:document-rotation="0"
     pagecolor="#ffffff"
     bordercolor="#666666"
     borderopacity="1"
     objecttolerance="10"
     gridtolerance="10"
     guidetolerance="10"
     inkscape:pageopacity="0"
     inkscape:pageshadow="2"
     inkscape:window-width="1920"
     inkscape:window-height="1001"
     id="namedview18"
     showgrid="false"
     inkscape:zoom="2.138807"
     inkscape:cx="94.364786"
     inkscape:cy="86.145349"
     inkscape:window-x="-9"
     inkscape:window-y="-9"
     inkscape:window-maximized="1"
     inkscape:current-layer="svg16" />
  <g
     fill="#ececf1"
     id="g12"
     transform="translate(-156,-156)" />
  <path
     id="path2"
     style="fill:#eeeeee;stroke-width:0.390625;fill-opacity:1"
     d="M 29.29688,0 C 13.12561,0 0,13.51624 0,29.6875 V 170.70312 C 0,186.87439 13.12561,200 29.29688,200 H 170.70312 C 186.87439,200 200,186.87439 200,170.70312 V 29.6875 C 200,13.51624 186.87439,0 170.70312,0 Z m 17.96874,41.40625 h 23.4375 v 23.4375 h -23.4375 z m 0,35.15625 h 23.4375 v 82.42188 h -23.4375 z m 35.15625,0 h 23.4375 v 4.45251 c 6.09436,-1.99127 10.07843,-4.45251 17.57813,-4.45251 15.9378,0 29.29688,14.29597 29.29688,31.17218 v 51.2497 h -23.4375 v -47.26563 c 0,-6.44532 -5.27344,-11.71875 -11.71875,-11.71875 -6.44531,0 -11.71876,5.27343 -11.71876,11.71875 v 47.26563 h -23.4375 z" />
</svg>
