<?xml version="1.0" encoding="UTF-8" standalone="no"?>
<!-- Created with Inkscape (http://www.inkscape.org/) -->

<svg
   width="143.9142mm"
   height="115.90591mm"
   viewBox="0 0 143.9142 115.90591"
   version="1.1"
   id="svg5"
   inkscape:version="1.1 (c68e22c387, 2021-05-23)"
   sodipodi:docname="projects.svg"
   xmlns:inkscape="http://www.inkscape.org/namespaces/inkscape"
   xmlns:sodipodi="http://sodipodi.sourceforge.net/DTD/sodipodi-0.dtd"
   xmlns="http://www.w3.org/2000/svg"
   xmlns:svg="http://www.w3.org/2000/svg">
  <sodipodi:namedview
     id="namedview7"
     pagecolor="#505050"
     bordercolor="#eeeeee"
     borderopacity="1"
     inkscape:pageshadow="0"
     inkscape:pageopacity="0"
     inkscape:pagecheckerboard="0"
     inkscape:document-units="mm"
     showgrid="false"
     inkscape:zoom="0.51150168"
     inkscape:cx="267.83881"
     inkscape:cy="411.53335"
     inkscape:window-width="1920"
     inkscape:window-height="1001"
     inkscape:window-x="-9"
     inkscape:window-y="-9"
     inkscape:window-maximized="1"
     inkscape:current-layer="layer1" />
  <defs
     id="defs2" />
  <g
     inkscape:label="Calque 1"
     inkscape:groupmode="layer"
     id="layer1"
     transform="translate(-2.2912628,-6.1482225)">
    <path
       style="fill:#ffffff;stroke-width:0.264583"
       d="m 11.097683,121.63627 c -3.0053001,-0.65306 -5.5919102,-2.25686 -6.9523202,-4.31071 -1.48561,-2.24286 -1.8541,-4.05132 -1.8541,-9.09933 v -4.49333 l 0.90496,-2.02723 c 0.49773,-1.11498 2.93851,-6.366139 5.4239601,-11.669229 l 4.5189901,-9.64198 0.006,-32.162184 c 0.004,-21.045468 0.10041,-32.569848 0.27826,-33.34162 0.89177,-3.869758 3.87083,-7.0566065 7.71492,-8.2530205 1.50723,-0.469108 3.71123,-0.489414 53.11908,-0.489414 49.134217,0 51.618917,0.02257 53.091547,0.482266 3.88642,1.213192 6.56874,4.0836355 7.63254,8.1678355 0.33933,1.302753 0.39467,6.008489 0.39467,33.556254 v 32.041013 l 3.32878,7.12788 c 1.83082,3.92033 4.23885,9.03288 5.35117,11.36121 l 2.02239,4.233329 0.0944,4.71001 c 0.0833,4.15384 0.0307,4.91969 -0.44497,6.48582 -1.18632,3.90569 -4.06389,6.40825 -8.43319,7.33415 -2.59083,0.54903 -123.668857,0.53778 -126.197587,-0.0117 z M 134.05377,99.826101 c 0,-0.13707 -1.14511,-2.66715 -2.54468,-5.6224 -1.39958,-2.95525 -2.64678,-5.64108 -2.77158,-5.9685 l -0.2269,-0.59531 H 74.312533 20.114463 l -2.82618,5.96837 c -1.55441,3.2826 -2.82619,6.08057 -2.82619,6.21771 0,0.15532 22.54552,0.249329 59.79583,0.249329 37.228287,0 59.795847,-0.094 59.795847,-0.249199 z M 125.78662,46.9602 125.71942,15.805514 H 74.257953 22.796493 l -0.0672,31.154686 -0.0672,31.154691 h 51.59592 51.595937 z M 65.910433,72.980231 c -1.05293,-0.45863 -2.14474,-1.775933 -2.52564,-3.047248 -0.28628,-0.955522 0.0741,-2.338078 6.21919,-23.85688 3.5877,-12.563417 6.73369,-23.204193 6.9911,-23.646166 0.66277,-1.137984 2.5128,-2.095979 4.04765,-2.095979 2.2829,0 4.46311,2.213213 4.46311,4.530664 0,1.315908 -12.56199,45.404882 -13.26341,46.550763 -1.00273,1.638106 -3.96796,2.420326 -5.932,1.564846 z m -10.43792,-6.085027 c -0.50933,-0.187251 -5.80761,-3.411821 -11.77396,-7.165713 -5.96636,-3.75389 -11.70482,-7.349201 -12.75215,-7.98958 -3.08896,-1.888715 -4.12773,-3.646249 -3.5103,-5.939211 0.58319,-2.165781 0.0745,-1.791866 15.378,-11.303057 12.95641,-8.052453 12.82053,-7.976505 14.27143,-7.976505 3.22756,0 5.50066,3.21564 4.36857,6.179992 -0.55844,1.462246 -0.96202,1.820802 -4.65868,4.138914 -1.67349,1.049419 -5.92359,3.711114 -9.44466,5.914876 -4.85377,3.037861 -6.32541,4.079317 -6.08542,4.306536 0.1741,0.16483 4.30514,2.773227 9.18008,5.796436 9.08281,5.632722 10.0931,6.346081 10.73925,7.582918 0.44716,0.855932 0.49132,3.192113 0.0756,3.999283 -1.09272,2.121648 -3.69374,3.224974 -5.78777,2.455111 z m 35.58646,0.19848 c -0.29105,-0.06155 -0.78789,-0.166762 -1.10409,-0.233813 -0.79589,-0.16877 -2.13897,-1.347041 -2.64011,-2.316149 -0.5307,-1.026252 -0.53773,-3.040824 -0.0141,-4.043876 0.67979,-1.302228 1.60122,-1.956059 10.76977,-7.641954 4.874947,-3.023209 9.009897,-5.633381 9.188767,-5.800381 0.25011,-0.233508 -1.15541,-1.228011 -6.08542,-4.305877 -14.494467,-9.049072 -13.689897,-8.456442 -14.236487,-10.486331 -0.54476,-2.023073 0.35363,-4.050871 2.27742,-5.14047 1.51901,-0.860335 3.05019,-0.794893 4.82399,0.206174 1.88562,1.064183 21.309727,13.140282 23.918617,14.870373 3.56012,2.360906 4.3162,5.298427 1.99147,7.737255 -0.46418,0.486966 -6.59433,4.475906 -13.62254,8.864312 -11.069147,6.911556 -13.959857,8.580842 -14.604067,8.433331 -0.0737,-0.01688 -0.37216,-0.08105 -0.66321,-0.142594 z"
       id="path1148"
       sodipodi:nodetypes="csscssccsssssscsscccsccssscccsssscccccccccsssssssssssssssssssssssssssssssssssssss" />
  </g>
</svg>
