<?xml version="1.0" encoding="UTF-8" standalone="no"?>
<!-- Created with Inkscape (http://www.inkscape.org/) -->

<svg
   width="126.73541mm"
   height="126.70631mm"
   viewBox="0 0 126.73541 126.70631"
   version="1.1"
   id="svg5"
   sodipodi:docname="sharables.svg"
   inkscape:version="1.1 (c68e22c387, 2021-05-23)"
   xmlns:inkscape="http://www.inkscape.org/namespaces/inkscape"
   xmlns:sodipodi="http://sodipodi.sourceforge.net/DTD/sodipodi-0.dtd"
   xmlns="http://www.w3.org/2000/svg"
   xmlns:svg="http://www.w3.org/2000/svg">
  <sodipodi:namedview
     id="namedview7"
     pagecolor="#505050"
     bordercolor="#eeeeee"
     borderopacity="1"
     inkscape:pageshadow="0"
     inkscape:pageopacity="0"
     inkscape:pagecheckerboard="0"
     inkscape:document-units="mm"
     showgrid="false"
     inkscape:zoom="0.51150168"
     inkscape:cx="119.25669"
     inkscape:cy="221.89565"
     inkscape:window-width="1920"
     inkscape:window-height="1001"
     inkscape:window-x="-9"
     inkscape:window-y="-9"
     inkscape:window-maximized="1"
     inkscape:current-layer="layer1" />
  <defs
     id="defs2" />
  <g
     inkscape:label="Calque 1"
     inkscape:groupmode="layer"
     id="layer1"
     transform="translate(-62.240276,-23.560301)">
    <path
       style="fill:#ffffff;stroke-width:0.264583"
       d="m 76.660068,150.00668 c -2.345505,-0.71605 -4.516046,-2.54605 -5.594972,-4.71716 l -0.622737,-1.25312 -0.07035,-31.55157 -0.07035,-31.551557 H 94.118363 117.93507 V 115.59368 150.2541 L 97.628299,150.2313 C 86.459575,150.2188 77.023872,150.11774 76.66007,150.00667 Z M 133.2809,115.59992 V 80.933273 h 23.81671 23.8167 l -0.0704,31.551557 -0.0703,31.55157 -0.63177,1.27233 c -0.80706,1.62539 -2.55593,3.37425 -4.18131,4.18132 l -1.27234,0.63176 -20.70364,0.0724 -20.70365,0.0724 z M 64.444383,72.988683 c -0.53399,-0.28208 -1.248365,-0.9019 -1.5875,-1.37737 -0.614408,-0.86142 -0.616607,-0.89423 -0.616607,-9.19888 0,-8.21171 0.009,-8.35131 0.614109,-9.48515 0.986121,-1.8479 2.543008,-3.33857 4.347496,-4.1626 1.600297,-0.73078 1.81502,-0.75811 6.737349,-0.85749 l 5.084374,-0.10264 -0.521571,-1.02236 c -1.311269,-2.5703 -1.705147,-7.1461 -0.906692,-10.53333 0.911608,-3.86726 3.733313,-7.77979 7.250004,-10.05274 3.517077,-2.27319 8.534466,-3.19012 12.557992,-2.29497 3.876573,0.86245 5.442563,1.89962 12.566293,8.32281 l 6.45435,5.81963 1.10129,-0.90243 c 0.60571,-0.49633 1.91463,-1.28303 2.9087,-1.74822 1.53409,-0.71788 2.19463,-0.86443 4.36778,-0.96908 3.60505,-0.1736 6.3533,0.6716 8.9023,2.73781 l 1.08461,0.87918 5.39768,-4.9053 c 6.80989,-6.18868 7.63431,-6.85081 9.8687,-7.92611 6.50444,-3.13026 14.2148,-1.7243 19.39953,3.53743 1.81963,1.84666 3.48414,4.87581 4.17266,7.59355 0.7832,3.09147 0.35825,7.94933 -0.91342,10.44203 l -0.52144,1.0221 5.08437,0.10264 c 4.92233,0.0994 5.13705,0.12671 6.73735,0.85749 1.80449,0.82403 3.36138,2.3147 4.3475,4.1626 0.60507,1.13384 0.6141,1.27344 0.6141,9.48515 0,8.30846 -0.002,8.33707 -0.61759,9.20027 -0.33968,0.47623 -1.07908,1.10131 -1.64311,1.38906 -1.01289,0.51674 -1.76529,0.52303 -61.16261,0.51148 -58.977968,-0.0115 -60.155818,-0.0216 -61.107997,-0.52456 z m 48.459067,-25.45906 c -0.007,-0.52798 -14.171522,-13.21962 -15.650025,-14.02291 -2.688707,-1.46081 -6.479093,-0.80132 -8.813962,1.53355 -1.465032,1.46503 -2.092764,3.05308 -2.086896,5.27947 0.0082,3.11839 1.381975,5.36396 4.117819,6.73108 l 1.620033,0.80954 H 102.4992 c 8.15306,0 10.4078,-0.0717 10.40425,-0.33073 z m 46.90627,-0.086 c 1.61575,-0.55054 3.49178,-2.2367 4.35724,-3.91624 0.91065,-1.76726 0.9768,-4.4476 0.15485,-6.274 -1.21838,-2.70726 -3.97615,-4.46723 -7.00685,-4.47168 -2.79997,-0.004 -3.93652,0.76013 -11.99742,8.06721 -3.8528,3.4925 -7.00609,6.49883 -7.00732,6.68073 -0.002,0.25887 2.20083,0.33073 10.13709,0.33073 8.53354,0 10.33303,-0.066 11.36241,-0.41675 z"
       id="path1713" />
  </g>
</svg>
